<?xml version="1.0" encoding="UTF-8" standalone="no"?>
<!-- Created with Inkscape (http://www.inkscape.org/) -->

<svg
   xmlns:dc="http://purl.org/dc/elements/1.1/"
   xmlns:cc="http://creativecommons.org/ns#"
   xmlns:rdf="http://www.w3.org/1999/02/22-rdf-syntax-ns#"
   xmlns:svg="http://www.w3.org/2000/svg"
   xmlns="http://www.w3.org/2000/svg"
   xmlns:sodipodi="http://sodipodi.sourceforge.net/DTD/sodipodi-0.dtd"
   xmlns:inkscape="http://www.inkscape.org/namespaces/inkscape"
   width="18.345377mm"
   height="16.305882mm"
   viewBox="0 0 18.345377 16.305882"
   version="1.1"
   id="svg8"
   inkscape:version="0.92.3 (2405546, 2018-03-11)"
   sodipodi:docname="crossproduct.svg">
  <defs
     id="defs2">
    <inkscape:perspective
       sodipodi:type="inkscape:persp3d"
       inkscape:vp_x="0 : 8.152941 : 1"
       inkscape:vp_y="0 : 1000 : 0"
       inkscape:vp_z="18.345377 : 8.152941 : 1"
       inkscape:persp3d-origin="9.1726885 : 5.435294 : 1"
       id="perspective893" />
    <marker
       inkscape:stockid="Arrow2Send"
       orient="auto"
       refY="0.0"
       refX="0.0"
       id="Arrow2Send"
       style="overflow:visible;"
       inkscape:isstock="true">
      <path
         id="path10143"
         style="fill-rule:evenodd;stroke-width:0.625;stroke-linejoin:round;stroke:#000000;stroke-opacity:1;fill:#000000;fill-opacity:1"
         d="M 8.7185878,4.0337352 L -2.2072895,0.016013256 L 8.7185884,-4.0017078 C 6.9730900,-1.6296469 6.9831476,1.6157441 8.7185878,4.0337352 z "
         transform="scale(0.3) rotate(180) translate(-2.3,0)" />
    </marker>
    <marker
       inkscape:stockid="Arrow1Send"
       orient="auto"
       refY="0.0"
       refX="0.0"
       id="marker17285"
       style="overflow:visible;"
       inkscape:isstock="true">
      <path
         id="path17283"
         d="M 0.0,0.0 L 5.0,-5.0 L -12.5,0.0 L 5.0,5.0 L 0.0,0.0 z "
         style="fill-rule:evenodd;stroke:#000000;stroke-width:1pt;stroke-opacity:1;fill:#000000;fill-opacity:1"
         transform="scale(0.2) rotate(180) translate(6,0)" />
    </marker>
    <marker
       inkscape:stockid="Arrow1Send"
       orient="auto"
       refY="0.0"
       refX="0.0"
       id="Arrow1Send"
       style="overflow:visible;"
       inkscape:isstock="true">
      <path
         id="path10125"
         d="M 0.0,0.0 L 5.0,-5.0 L -12.5,0.0 L 5.0,5.0 L 0.0,0.0 z "
         style="fill-rule:evenodd;stroke:#000000;stroke-width:1pt;stroke-opacity:1;fill:#000000;fill-opacity:1"
         transform="scale(0.2) rotate(180) translate(6,0)" />
    </marker>
    <marker
       inkscape:stockid="Arrow2Sstart"
       orient="auto"
       refY="0.0"
       refX="0.0"
       id="Arrow2Sstart"
       style="overflow:visible"
       inkscape:isstock="true">
      <path
         id="path10140"
         style="fill-rule:evenodd;stroke-width:0.625;stroke-linejoin:round;stroke:#000000;stroke-opacity:1;fill:#000000;fill-opacity:1"
         d="M 8.7185878,4.0337352 L -2.2072895,0.016013256 L 8.7185884,-4.0017078 C 6.9730900,-1.6296469 6.9831476,1.6157441 8.7185878,4.0337352 z "
         transform="scale(0.3) translate(-2.3,0)" />
    </marker>
  </defs>
  <sodipodi:namedview
     id="base"
     pagecolor="#ffffff"
     bordercolor="#666666"
     borderopacity="1.0"
     inkscape:pageopacity="0.0"
     inkscape:pageshadow="2"
     inkscape:zoom="15.999999"
     inkscape:cx="37.708883"
     inkscape:cy="36.876137"
     inkscape:document-units="mm"
     inkscape:current-layer="g1064"
     showgrid="false"
     fit-margin-top="2"
     fit-margin-left="2"
     fit-margin-right="2"
     fit-margin-bottom="2"
     inkscape:window-width="3200"
     inkscape:window-height="1645"
     inkscape:window-x="0"
     inkscape:window-y="41"
     inkscape:window-maximized="1" />
  <metadata
     id="metadata5">
    <rdf:RDF>
      <cc:Work
         rdf:about="">
        <dc:format>image/svg+xml</dc:format>
        <dc:type
           rdf:resource="http://purl.org/dc/dcmitype/StillImage" />
        <dc:title></dc:title>
      </cc:Work>
    </rdf:RDF>
  </metadata>
  <g
     inkscape:label="Layer 1"
     inkscape:groupmode="layer"
     id="layer1"
     transform="translate(-53.449611,-76.18607)">
    <g
       id="g17167"
       transform="translate(-0.56223958,0.1984375)">
      <g
         id="g1064"
         transform="matrix(1.2646968,0,0,1.2646968,-16.50459,-22.814155)">
        <g
           id="g1190"
           transform="matrix(0.02797775,0,0,0.02797775,56.29052,78.866999)">
          <path
             id="path1082"
             d="m 466.982,303.788 c -22,-3 -57,-23 -62,-26 -5,-3 -28,-28 -40,-47 -12,-19 -23,-42 -27,-55 -4,-13 -8,-26 -9,-33 -1,-7 1,-23.5 4,-30.5 -7,-5 -21,-6 -27,7 -6,13 -11,33 -11,46 0,13 22,55 8,61 -14,6 -17,14 -89,-4 -72,-18 -102,-20 -109,-6 -7,14 34,20 56,24 22,4 72.021,22.634 65,32 -4.35,5.802 -9.375,4.488 -20.709,8.488 -19.611,6.922 -19.308,9.966 -43.791,18.345 -24.433,8.362 -22.843,32.226 -15.167,36.23 7.676,4.004 14.016,6.342 46.386,-12.013 14.35,-5.34 31.782,-8.885 47.115,-10.218 15.333,-1.333 24.668,56 41.334,64.667 16.666,8.667 35.999,8 47.999,8 12,0 18.666,2.001 25.333,-1.333 6.667,-3.334 25.334,1.332 35.334,6.666 0,0 38.667,18.667 42,22.667"
             inkscape:connector-curvature="0"
             style="fill:#e5d4b1;stroke:#000000;stroke-width:3" />
          <path
             id="path1084"
             d="m 234.483,270.787 c 33.999,-1.999 45.999,30.667 53.999,48.001"
             inkscape:connector-curvature="0"
             style="fill:none;stroke:#897f6a;stroke-width:2" />
          <path
             id="path1086"
             d="m 306.149,245.453 c 0.334,25.334 11.001,46.668 25.333,54.666"
             inkscape:connector-curvature="0"
             style="fill:none;stroke:#897f6a;stroke-width:2" />
          <path
             id="path1088"
             d="m 239.816,230.787 c -8,1.333 -17.333,20 -13.333,25.333"
             inkscape:connector-curvature="0"
             style="fill:none;stroke:#897f6a;stroke-width:2" />
          <path
             id="path1090"
             d="m 197.149,220.12 c -5.333,4 -16,13.333 -13.333,18.667"
             inkscape:connector-curvature="0"
             style="fill:none;stroke:#897f6a;stroke-width:2" />
          <path
             id="path1092"
             d="m 149.149,212.12 c -6.667,4 -8.834,15.501 -10.167,18.167"
             inkscape:connector-curvature="0"
             style="fill:none;stroke:#897f6a;stroke-width:2" />
          <path
             id="path1094"
             d="m 222.483,280.121 c 8,4 12,17.332 9.333,26.666"
             inkscape:connector-curvature="0"
             style="fill:none;stroke:#897f6a;stroke-width:2" />
          <path
             id="path1096"
             d="m 201.296,287.393 c 6.667,4 7.248,23.993 4.581,27.993"
             inkscape:connector-curvature="0"
             style="fill:none;stroke:#897f6a;stroke-width:2" />
          <path
             id="path1098"
             d="m 175.848,298.59 c 8.648,6.485 9.591,15.534 5.089,26.466"
             inkscape:connector-curvature="0"
             style="fill:none;stroke:#897f6a;stroke-width:2" />
          <path
             id="path1100"
             d="m 293.982,236.288 c -4,10 -7,18 -6,24"
             inkscape:connector-curvature="0"
             style="fill:none;stroke:#897f6a;stroke-width:2" />
          <path
             id="path1102"
             d="m 294.982,165.288 c 11.947,1.707 2.677,3.252 25,-1"
             inkscape:connector-curvature="0"
             style="fill:none;stroke:#897f6a;stroke-width:2" />
          <path
             id="path1104"
             d="m 399.149,286.788 c -4,12 -8,15.999 -14.667,19.999"
             inkscape:connector-curvature="0"
             style="fill:none;stroke:#897f6a;stroke-width:2" />
          <path
             id="path1106"
             d="m 299.816,374.455 c 15.905,-3.181 27.334,-5.333 36,-8 8.666,-2.667 21.332,-10.001 24.666,-16.667 3.334,-6.666 0.667,-7.999 -1.333,-12.666 -2,-4.667 -23.999,-2 -29.333,0 -5.334,2 -10,4 -32,7.333 -22,3.333 -28,5 -39.334,3.666 -9.292,-1.094 1.335,22.333 6.001,25 4.666,2.667 5.333,7.334 35.333,1.334 z"
             inkscape:connector-curvature="0"
             style="fill:#e5d4b1;stroke:#000000;stroke-width:3" />
          <path
             id="path1108"
             d="m 316.784,311.788 c 18.897,-1.333 28.348,-2.666 33.435,2.667 5.087,5.333 2.906,10.667 1.453,12 -1.453,1.333 -18.171,8.666 -26.893,11.333 -8.723,2.667 -10.176,0.667 -27.619,4.667 -17.444,4 -18.897,5.333 -23.986,7.333 -5.088,2 -15.263,1.333 -24.711,-6 -9.449,-7.333 -7.996,-20 -7.269,-24 0.727,-4 1.455,-12.667 19.625,-14 18.17,-1.333 12.354,4.666 35.614,5.333 23.258,0.667 20.351,0.667 20.351,0.667 z"
             inkscape:connector-curvature="0"
             style="fill:#e5d4b1;stroke:#000000;stroke-width:3" />
          <path
             id="path1110"
             d="m 245.815,318.455 c -1.923,17.305 1.109,18.166 10.667,25.333"
             inkscape:connector-curvature="0"
             style="fill:none;stroke:#897f6a;stroke-width:2" />
          <path
             id="path1112"
             d="m 275.149,318.787 c 0,5.333 1.333,17.333 1.333,17.333"
             inkscape:connector-curvature="0"
             style="fill:none;stroke:#897f6a;stroke-width:2" />
          <path
             id="path1114"
             d="m 308.149,317.12 c 0,2.667 1.334,13.333 1.334,17.333"
             inkscape:connector-curvature="0"
             style="fill:none;stroke:#897f6a;stroke-width:2" />
          <path
             id="path1116"
             d="m 314.815,347.122 c 0,4 6.667,17.333 6.667,17.333"
             inkscape:connector-curvature="0"
             style="fill:none;stroke:#897f6a;stroke-width:2" />
          <path
             id="path1118"
             d="m 282.482,354.788 c 1.333,2.667 2.667,14.666 6.667,16"
             inkscape:connector-curvature="0"
             style="fill:none;stroke:#897f6a;stroke-width:2" />
          <path
             id="path1120"
             d="m 405.815,318.788 c -6.666,12 -10.666,42.668 -17.333,49.334"
             inkscape:connector-curvature="0"
             style="fill:none;stroke:#897f6a;stroke-width:2" />
          <line
             id="line1122"
             y2="41.787998"
             x2="322.814"
             y1="90.788002"
             x1="323.48199"
             style="fill:none;stroke:#963c96;stroke-width:9;stroke-linecap:round" />
          <polygon
             id="polygon1124"
             points="299.501,60.3 322.814,0 346.127,60.3 322.814,41.788 "
             style="fill:#963c96" />
          <line
             id="line1126"
             y2="201.067"
             x2="40.900002"
             y1="210.46001"
             x1="88.996002"
             style="fill:none;stroke:#2828ff;stroke-width:9;stroke-linecap:round" />
          <polygon
             id="polygon1128"
             points="54.24,227.68 0,192.5 63.799,182.044 40.9,201.067 "
             style="fill:#2828ff" />
          <line
             id="line1130"
             y2="348.005"
             x2="95.584999"
             y1="335.255"
             x1="126.377"
             style="fill:none;stroke:#e12828;stroke-width:9;stroke-linecap:round" />
          <polygon
             id="polygon1132"
             points="118.064,371.413 69.063,358.197 96.605,315.568 95.585,348.005 "
             style="fill:#e12828" />
          <g
             id="g1140">
	<path
   id="path1134"
   d="m 375.868,62.098 -0.308,-0.103 c -1.121,1.094 -2.212,1.887 -3.271,2.379 -1.059,0.492 -2.184,0.738 -3.373,0.738 -1.75,0 -3.138,-0.461 -4.163,-1.384 -1.025,-0.923 -1.538,-2.157 -1.538,-3.702 0,-2.01 0.987,-3.592 2.963,-4.748 1.976,-1.156 4.974,-1.883 8.993,-2.184 v -1.948 c 0,-1.271 -0.144,-2.252 -0.431,-2.943 -0.287,-0.691 -0.656,-1.176 -1.107,-1.456 -0.451,-0.28 -0.991,-0.42 -1.62,-0.42 -0.629,0 -1.173,0.109 -1.63,0.328 -0.459,0.219 -0.872,0.632 -1.241,1.241 -0.369,0.609 -0.643,1.453 -0.82,2.533 h -3.876 v -3.732 c 1.572,-0.697 2.902,-1.22 3.988,-1.569 1.088,-0.349 2.099,-0.605 3.035,-0.769 0.936,-0.164 1.836,-0.246 2.697,-0.246 1.654,0 2.977,0.219 3.969,0.656 0.99,0.438 1.732,1.148 2.225,2.133 0.493,0.985 0.738,2.345 0.738,4.081 v 7.998 c 0,1.162 0.034,1.986 0.103,2.471 0.069,0.485 0.175,0.837 0.317,1.056 0.145,0.219 0.328,0.39 0.555,0.513 0.225,0.123 0.639,0.26 1.24,0.41 v 1.354 h -7.629 z m -0.677,-6.994 c -2.119,0.055 -3.688,0.451 -4.707,1.189 -1.019,0.738 -1.527,1.818 -1.527,3.24 0,0.848 0.232,1.494 0.697,1.938 0.465,0.444 1.107,0.667 1.928,0.667 0.629,0 1.224,-0.167 1.784,-0.502 0.56,-0.335 1.005,-0.783 1.333,-1.343 0.328,-0.56 0.492,-1.155 0.492,-1.784 z"
   inkscape:connector-curvature="0"
   style="fill:#2828ff" />

	<path
   id="path1136"
   d="m 403.971,52.808 9.208,9.311 -2.051,2.051 -9.188,-9.372 -9.475,9.29 -1.907,-1.928 9.372,-9.352 -9.33,-9.208 2.051,-2.051 9.29,9.27 9.29,-9.27 1.928,1.907 z"
   inkscape:connector-curvature="0" />

	<path
   id="path1138"
   d="m 422.54,42.492 c 0,-1.299 -0.021,-2.242 -0.062,-2.83 -0.041,-0.588 -0.127,-1.042 -0.256,-1.364 -0.131,-0.321 -0.328,-0.574 -0.596,-0.759 -0.266,-0.185 -0.734,-0.345 -1.404,-0.482 v -1.354 l 5.722,-0.287 h 2.522 v 11.751 l 0.021,0.021 c 1.217,-1.135 2.32,-1.931 3.312,-2.389 0.992,-0.458 2.007,-0.687 3.046,-0.687 2.434,0 4.259,0.858 5.476,2.574 1.217,1.716 1.825,4.283 1.825,7.701 0,3.568 -0.804,6.248 -2.409,8.039 -1.607,1.791 -3.982,2.687 -7.127,2.687 -2.16,0 -4.136,-0.39 -5.927,-1.169 l -1.518,1.169 -2.625,-0.369 z m 5.926,15.566 c 0,1.682 0.29,2.922 0.871,3.722 0.581,0.8 1.48,1.2 2.697,1.2 1.258,0 2.218,-0.66 2.881,-1.979 0.663,-1.319 0.995,-3.203 0.995,-5.65 0,-2.693 -0.294,-4.703 -0.882,-6.029 -0.588,-1.326 -1.504,-1.989 -2.748,-1.989 -0.602,0 -1.196,0.157 -1.784,0.472 -0.588,0.315 -1.073,0.762 -1.456,1.343 -0.383,0.581 -0.574,1.22 -0.574,1.917 z"
   inkscape:connector-curvature="0"
   style="fill:#e12828" />

</g>
          <g
             id="g1144">
	<path
   id="path1142"
   d="m 74.339,166.769 -0.308,-0.103 c -1.121,1.094 -2.212,1.887 -3.271,2.379 -1.059,0.492 -2.184,0.738 -3.373,0.738 -1.75,0 -3.138,-0.461 -4.163,-1.384 -1.025,-0.923 -1.538,-2.157 -1.538,-3.702 0,-2.01 0.987,-3.592 2.963,-4.748 1.976,-1.156 4.974,-1.883 8.993,-2.184 v -1.948 c 0,-1.271 -0.144,-2.252 -0.431,-2.943 -0.287,-0.691 -0.656,-1.176 -1.107,-1.456 -0.451,-0.28 -0.991,-0.42 -1.62,-0.42 -0.629,0 -1.173,0.109 -1.63,0.328 -0.459,0.219 -0.872,0.632 -1.241,1.241 -0.369,0.609 -0.643,1.453 -0.82,2.533 h -3.876 v -3.732 c 1.572,-0.697 2.902,-1.22 3.988,-1.569 1.088,-0.349 2.099,-0.605 3.035,-0.769 0.936,-0.164 1.836,-0.246 2.697,-0.246 1.654,0 2.977,0.219 3.969,0.656 0.99,0.438 1.732,1.148 2.225,2.133 0.493,0.985 0.738,2.345 0.738,4.081 v 7.998 c 0,1.162 0.034,1.986 0.103,2.471 0.069,0.485 0.175,0.837 0.317,1.056 0.145,0.219 0.328,0.39 0.555,0.513 0.225,0.123 0.639,0.26 1.24,0.41 v 1.354 h -7.629 z m -0.676,-6.994 c -2.119,0.055 -3.688,0.451 -4.707,1.189 -1.019,0.738 -1.527,1.818 -1.527,3.24 0,0.848 0.232,1.494 0.697,1.938 0.465,0.444 1.107,0.667 1.928,0.667 0.629,0 1.224,-0.167 1.784,-0.502 0.56,-0.335 1.005,-0.783 1.333,-1.343 0.328,-0.56 0.492,-1.155 0.492,-1.784 z"
   inkscape:connector-curvature="0"
   style="fill:#2828ff" />

</g>
          <g
             id="g1148">
	<path
   id="path1146"
   d="m 93.716,283.163 c 0,-1.299 -0.021,-2.242 -0.062,-2.83 -0.041,-0.588 -0.127,-1.042 -0.256,-1.363 -0.131,-0.321 -0.328,-0.574 -0.596,-0.759 -0.266,-0.185 -0.734,-0.345 -1.404,-0.481 v -1.354 l 5.722,-0.287 h 2.522 v 11.75 l 0.021,0.021 c 1.217,-1.135 2.32,-1.932 3.312,-2.39 0.992,-0.458 2.007,-0.687 3.046,-0.687 2.434,0 4.259,0.857 5.476,2.573 1.217,1.716 1.825,4.282 1.825,7.7 0,3.568 -0.804,6.248 -2.409,8.039 -1.607,1.791 -3.982,2.688 -7.127,2.688 -2.16,0 -4.136,-0.391 -5.927,-1.17 l -1.518,1.17 -2.625,-0.369 z m 5.927,15.566 c 0,1.682 0.29,2.922 0.871,3.722 0.581,0.8 1.48,1.2 2.697,1.2 1.258,0 2.218,-0.66 2.881,-1.979 0.663,-1.319 0.995,-3.202 0.995,-5.649 0,-2.693 -0.294,-4.703 -0.882,-6.029 -0.588,-1.326 -1.504,-1.99 -2.748,-1.99 -0.602,0 -1.196,0.158 -1.784,0.473 -0.588,0.315 -1.073,0.762 -1.456,1.343 -0.383,0.581 -0.574,1.22 -0.574,1.917 z"
   inkscape:connector-curvature="0"
   style="fill:#e12828" />

</g>
        </g>
      </g>
    </g>
  </g>
</svg>
