<?xml version="1.0" encoding="UTF-8" standalone="no"?>
<!-- Created with Inkscape (http://www.inkscape.org/) -->

<svg
   xmlns:dc="http://purl.org/dc/elements/1.1/"
   xmlns:cc="http://creativecommons.org/ns#"
   xmlns:rdf="http://www.w3.org/1999/02/22-rdf-syntax-ns#"
   xmlns:svg="http://www.w3.org/2000/svg"
   xmlns="http://www.w3.org/2000/svg"
   xmlns:sodipodi="http://sodipodi.sourceforge.net/DTD/sodipodi-0.dtd"
   xmlns:inkscape="http://www.inkscape.org/namespaces/inkscape"
   width="18.345377mm"
   height="16.305882mm"
   viewBox="0 0 18.345377 16.305882"
   version="1.1"
   id="svg8"
   inkscape:version="0.92.3 (2405546, 2018-03-11)"
   sodipodi:docname="scalar-cosinus.svg">
  <defs
     id="defs2">
    <marker
       inkscape:stockid="Arrow2Send"
       orient="auto"
       refY="0.0"
       refX="0.0"
       id="Arrow2Send"
       style="overflow:visible;"
       inkscape:isstock="true">
      <path
         id="path10143"
         style="fill-rule:evenodd;stroke-width:0.625;stroke-linejoin:round;stroke:#000000;stroke-opacity:1;fill:#000000;fill-opacity:1"
         d="M 8.7185878,4.0337352 L -2.2072895,0.016013256 L 8.7185884,-4.0017078 C 6.9730900,-1.6296469 6.9831476,1.6157441 8.7185878,4.0337352 z "
         transform="scale(0.3) rotate(180) translate(-2.3,0)" />
    </marker>
    <marker
       inkscape:stockid="Arrow1Send"
       orient="auto"
       refY="0.0"
       refX="0.0"
       id="marker17285"
       style="overflow:visible;"
       inkscape:isstock="true">
      <path
         id="path17283"
         d="M 0.0,0.0 L 5.0,-5.0 L -12.5,0.0 L 5.0,5.0 L 0.0,0.0 z "
         style="fill-rule:evenodd;stroke:#000000;stroke-width:1pt;stroke-opacity:1;fill:#000000;fill-opacity:1"
         transform="scale(0.2) rotate(180) translate(6,0)" />
    </marker>
    <marker
       inkscape:stockid="Arrow1Send"
       orient="auto"
       refY="0.0"
       refX="0.0"
       id="Arrow1Send"
       style="overflow:visible;"
       inkscape:isstock="true">
      <path
         id="path10125"
         d="M 0.0,0.0 L 5.0,-5.0 L -12.5,0.0 L 5.0,5.0 L 0.0,0.0 z "
         style="fill-rule:evenodd;stroke:#000000;stroke-width:1pt;stroke-opacity:1;fill:#000000;fill-opacity:1"
         transform="scale(0.2) rotate(180) translate(6,0)" />
    </marker>
    <marker
       inkscape:stockid="Arrow2Sstart"
       orient="auto"
       refY="0.0"
       refX="0.0"
       id="Arrow2Sstart"
       style="overflow:visible"
       inkscape:isstock="true">
      <path
         id="path10140"
         style="fill-rule:evenodd;stroke-width:0.625;stroke-linejoin:round;stroke:#000000;stroke-opacity:1;fill:#000000;fill-opacity:1"
         d="M 8.7185878,4.0337352 L -2.2072895,0.016013256 L 8.7185884,-4.0017078 C 6.9730900,-1.6296469 6.9831476,1.6157441 8.7185878,4.0337352 z "
         transform="scale(0.3) translate(-2.3,0)" />
    </marker>
    <inkscape:perspective
       id="perspective3412"
       inkscape:persp3d-origin="149.0425 : 78.612666 : 1"
       inkscape:vp_z="298.08499 : 117.919 : 1"
       inkscape:vp_y="0 : 1000 : 0"
       inkscape:vp_x="0 : 117.919 : 1"
       sodipodi:type="inkscape:persp3d" />
    <marker
       orient="auto"
       markerHeight="3"
       markerWidth="4"
       markerUnits="strokeWidth"
       refY="5"
       refX="0"
       viewBox="0 0 10 10"
       id="ArrowEnd">
      <path
         id="path3285"
         d="M 0 0 L 10 5 L 0 10 z" />
    </marker>
    <marker
       orient="auto"
       markerHeight="3"
       markerWidth="4"
       markerUnits="strokeWidth"
       refY="5"
       refX="10"
       viewBox="0 0 10 10"
       id="ArrowStart">
      <path
         id="path3288"
         d="M 10 0 L 0 5 L 10 10 z" />
    </marker>
  </defs>
  <sodipodi:namedview
     id="base"
     pagecolor="#ffffff"
     bordercolor="#666666"
     borderopacity="1.0"
     inkscape:pageopacity="0.0"
     inkscape:pageshadow="2"
     inkscape:zoom="15.999999"
     inkscape:cx="20.464247"
     inkscape:cy="26.281917"
     inkscape:document-units="mm"
     inkscape:current-layer="g3290"
     showgrid="false"
     fit-margin-top="2"
     fit-margin-left="2"
     fit-margin-right="2"
     fit-margin-bottom="2"
     inkscape:window-width="3200"
     inkscape:window-height="1645"
     inkscape:window-x="0"
     inkscape:window-y="41"
     inkscape:window-maximized="1" />
  <metadata
     id="metadata5">
    <rdf:RDF>
      <cc:Work
         rdf:about="">
        <dc:format>image/svg+xml</dc:format>
        <dc:type
           rdf:resource="http://purl.org/dc/dcmitype/StillImage" />
        <dc:title></dc:title>
      </cc:Work>
    </rdf:RDF>
  </metadata>
  <g
     inkscape:label="Layer 1"
     inkscape:groupmode="layer"
     id="layer1"
     transform="translate(-53.449611,-76.18607)">
    <g
       id="g17167"
       transform="translate(-0.56223958,0.1984375)">
      <text
         xml:space="preserve"
         style="font-style:normal;font-weight:normal;font-size:3.81747842px;line-height:1.25;font-family:sans-serif;letter-spacing:0px;word-spacing:0px;fill:#000000;fill-opacity:1;stroke:none;stroke-width:0.09543697"
         x="60.630035"
         y="85.85363"
         id="text5036"><tspan
           sodipodi:role="line"
           id="tspan5034"
           x="60.630035"
           y="89.231201"
           style="font-style:normal;font-variant:normal;font-weight:bold;font-stretch:normal;font-family:sans-serif;-inkscape-font-specification:'sans-serif Bold';stroke-width:0.09543697" /></text>
      <text
         xml:space="preserve"
         style="font-style:normal;font-weight:normal;font-size:2.99881601px;line-height:1.25;font-family:sans-serif;letter-spacing:0px;word-spacing:0px;fill:#000000;fill-opacity:1;stroke:none;stroke-width:0.0749704"
         x="62.941494"
         y="82.953758"
         id="text5040"><tspan
           sodipodi:role="line"
           id="tspan5038"
           x="62.941494"
           y="85.60701"
           style="font-style:normal;font-variant:normal;font-weight:bold;font-stretch:normal;font-family:sans-serif;-inkscape-font-specification:'sans-serif Bold';stroke-width:0.0749704" /></text>
      <g
         id="g3290"
         transform="matrix(0.06320343,0,0,0.06320343,53.527882,76.830835)">
        <path
           id="path3292"
           d="m 241.181,118.672 v 56.696"
           style="fill:none;stroke:#7f7f7f;stroke-width:0.79701102"
           inkscape:connector-curvature="0" />
        <path
           id="path3296"
           d="m 10.8405,115.684 v 5.977"
           style="fill:none;stroke:#000000;stroke-width:0.79701102"
           inkscape:connector-curvature="0" />
        <path
           id="path3298"
           d="m 289.584,120.215 4.324,-1.543 -4.324,-1.543 1.73,1.543"
           style="fill:#000000;fill-rule:evenodd;stroke:none"
           inkscape:connector-curvature="0" />
        <path
           id="path3300"
           d="M 11.2395,118.672 H 291.314"
           style="fill:none;stroke:#000000;stroke-width:0.79701102"
           inkscape:connector-curvature="0" />
        <path
           id="path3302"
           d="m 149.185,231.661 h 5.977"
           style="fill:none;stroke:#000000;stroke-width:0.79701102"
           inkscape:connector-curvature="0" />
        <path
           id="path3304"
           d="M 153.72,9.61005 152.173,5.28503 150.63,9.61005 152.173,7.883"
           style="fill:#000000;fill-rule:evenodd;stroke:none"
           inkscape:connector-curvature="0" />
        <path
           id="path3306"
           d="M 152.173,231.262 V 7.883"
           style="fill:none;stroke:#000000;stroke-width:0.79701102"
           inkscape:connector-curvature="0" />
        <path
           id="path3308"
           d="m 196.677,122.059 v -6.774"
           style="fill:none;stroke:#000000;stroke-width:0.79701102"
           inkscape:connector-curvature="0" />
        <path
           id="path3310"
           d="m 241.181,122.059 v -6.774"
           style="fill:none;stroke:#000000;stroke-width:0.79701102"
           inkscape:connector-curvature="0" />
        <path
           id="path3312"
           d="m 285.685,122.059 v -6.774"
           style="fill:none;stroke:#000000;stroke-width:0.79701102"
           inkscape:connector-curvature="0" />
        <path
           id="path3314"
           d="m 107.67,122.059 v -6.774"
           style="fill:none;stroke:#000000;stroke-width:0.79701102"
           inkscape:connector-curvature="0" />
        <path
           id="path3316"
           d="m 63.1655,122.059 v -6.774"
           style="fill:none;stroke:#000000;stroke-width:0.79701102"
           inkscape:connector-curvature="0" />
        <path
           id="path3318"
           d="m 18.6615,122.059 v -6.774"
           style="fill:none;stroke:#000000;stroke-width:0.79701102"
           inkscape:connector-curvature="0" />
        <path
           id="path3320"
           d="m 155.56,61.981 h -6.773"
           style="fill:none;stroke:#000000;stroke-width:0.79701102"
           inkscape:connector-curvature="0" />
        <path
           id="path3322"
           d="m 155.56,175.368 h -6.773"
           style="fill:none;stroke:#000000;stroke-width:0.79701102"
           inkscape:connector-curvature="0" />
        <path
           id="path3324"
           d="m 180.521,121.661 v -0.497"
           style="fill:none;stroke:#000000;stroke-width:0.79701102;stroke-linecap:square"
           inkscape:connector-curvature="0" />
        <path
           id="path3326"
           d="m 180.521,115.684 v 0.496"
           style="fill:none;stroke:#000000;stroke-width:0.79701102;stroke-linecap:square"
           inkscape:connector-curvature="0" />
        <path
           id="path3328"
           d="m 180.521,121.661 v -5.977"
           style="fill:none;stroke:#000000;stroke-width:0.79701102"
           inkscape:connector-curvature="0" />
        <path
           id="path3330"
           d="m 10.4425,121.661 v -0.497"
           style="fill:none;stroke:#ffffff;stroke-width:1.99252999;stroke-linecap:square"
           inkscape:connector-curvature="0" />
        <path
           id="path3332"
           d="m 10.4425,115.684 v 0.496"
           style="fill:none;stroke:#ffffff;stroke-width:1.99252999;stroke-linecap:square"
           inkscape:connector-curvature="0" />
        <path
           id="path3334"
           d="m 10.4425,121.661 v -5.977"
           style="fill:none;stroke:#ffffff;stroke-width:1.99252999"
           inkscape:connector-curvature="0" />
        <path
           id="path3336"
           d="m 180.705,127.098 c 0,-0.238 0,-0.262 -0.231,-0.262 -0.617,0.641 -1.492,0.641 -1.812,0.641 v 0.308 c 0.199,0 0.785,0 1.304,-0.261 v 5.164 c 0,0.355 -0.031,0.476 -0.925,0.476 h -0.321 v 0.309 c 0.352,-0.031 1.215,-0.031 1.614,-0.031 0.398,0 1.265,0 1.617,0.031 v -0.309 h -0.321 c -0.898,0 -0.925,-0.109 -0.925,-0.476 z m 2.371,5.996"
           style="fill:#000000;fill-rule:evenodd;stroke:none"
           inkscape:connector-curvature="0" />
        <path
           id="path3338"
           d="m 138.361,176.18 c 0.141,0 0.328,0 0.328,-0.199 0,-0.199 -0.187,-0.199 -0.328,-0.199 h -5.43 c -0.14,0 -0.328,0 -0.328,0.199 0,0.199 0.188,0.199 0.328,0.199 z m 0.867,2.012"
           style="fill:#000000;fill-rule:evenodd;stroke:none"
           inkscape:connector-curvature="0" />
        <path
           id="path3340"
           d="m 142.705,172.098 c 0,-0.238 0,-0.262 -0.231,-0.262 -0.617,0.641 -1.492,0.641 -1.812,0.641 v 0.308 c 0.199,0 0.785,0 1.304,-0.261 v 5.164 c 0,0.355 -0.031,0.476 -0.925,0.476 h -0.321 v 0.309 c 0.352,-0.031 1.215,-0.031 1.614,-0.031 0.398,0 1.265,0 1.617,0.031 v -0.309 h -0.321 c -0.898,0 -0.925,-0.109 -0.925,-0.476 z m 1.554,6.094"
           style="fill:#000000;fill-rule:evenodd;stroke:none"
           inkscape:connector-curvature="0" />
        <path
           id="path3342"
           d="m 149.357,124.285 c 0,-0.796 -0.051,-1.593 -0.398,-2.332 -0.457,-0.957 -1.274,-1.117 -1.692,-1.117 -0.597,0 -1.328,0.262 -1.734,1.188 -0.32,0.687 -0.371,1.465 -0.371,2.261 0,0.747 0.043,1.645 0.449,2.403 0.43,0.805 1.156,1.004 1.644,1.004 0.54,0 1.297,-0.207 1.735,-1.157 0.316,-0.687 0.367,-1.464 0.367,-2.25 z m -2.102,3.188 c -0.386,0 -0.976,-0.25 -1.156,-1.207 -0.109,-0.598 -0.109,-1.512 -0.109,-2.102 0,-0.636 0,-1.293 0.082,-1.832 0.187,-1.187 0.933,-1.273 1.183,-1.273 0.329,0 0.989,0.176 1.176,1.164 0.102,0.559 0.102,1.316 0.102,1.941 0,0.75 0,1.426 -0.113,2.063 -0.149,0.945 -0.715,1.246 -1.165,1.246 z m 2.071,0.469"
           style="fill:#000000;fill-rule:evenodd;stroke:none"
           inkscape:connector-curvature="0" />
        <path
           id="path3344"
           d="m 141.705,57.098 c 0,-0.238 0,-0.262 -0.231,-0.262 -0.617,0.6411 -1.492,0.6411 -1.812,0.6411 v 0.3079 c 0.199,0 0.785,0 1.304,-0.261 v 5.164 c 0,0.355 -0.031,0.476 -0.925,0.476 h -0.321 v 0.309 c 0.352,-0.031 1.215,-0.031 1.614,-0.031 0.398,0 1.265,0 1.617,0.031 v -0.309 h -0.321 c -0.898,0 -0.925,-0.109 -0.925,-0.476 z m 2.468,6.375"
           style="fill:#000000;fill-rule:evenodd;stroke:none"
           inkscape:connector-curvature="0" />
        <path
           id="path3346"
           d="m 200.416,104.758 h 1.125 c -0.328,1.473 -0.418,1.903 -0.418,2.57 0,0.149 0,0.418 0.078,0.758 0.101,0.438 0.211,0.496 0.359,0.496 0.199,0 0.41,-0.179 0.41,-0.379 0,-0.058 0,-0.078 -0.062,-0.218 -0.289,-0.719 -0.289,-1.364 -0.289,-1.645 0,-0.527 0.07,-1.066 0.179,-1.582 h 1.137 c 0.129,0 0.488,0 0.488,-0.34 0,-0.238 -0.207,-0.238 -0.398,-0.238 h -3.336 c -0.219,0 -0.598,0 -1.039,0.469 -0.348,0.386 -0.605,0.844 -0.605,0.894 0,0.012 0,0.102 0.117,0.102 0.082,0 0.101,-0.043 0.16,-0.121 0.488,-0.766 1.066,-0.766 1.265,-0.766 h 0.571 c -0.321,1.203 -0.86,2.41 -1.278,3.317 -0.078,0.148 -0.078,0.168 -0.078,0.238 0,0.191 0.161,0.269 0.289,0.269 0.297,0 0.379,-0.277 0.496,-0.648 0.141,-0.457 0.141,-0.477 0.27,-0.977 z m 3.086,3.57"
           style="fill:#000000;fill-rule:evenodd;stroke:none"
           inkscape:connector-curvature="0" />
        <path
           id="path3348"
           d="m 208.15,101.379 c 0.047,-0.129 0.047,-0.168 0.047,-0.179 0,-0.11 -0.09,-0.2 -0.199,-0.2 -0.067,0 -0.137,0.032 -0.168,0.09 l -3.457,9.496 c -0.051,0.129 -0.051,0.168 -0.051,0.18 0,0.109 0.09,0.199 0.199,0.199 0.129,0 0.16,-0.07 0.219,-0.242 z m 0.652,6.949"
           style="fill:#000000;fill-rule:evenodd;stroke:none"
           inkscape:connector-curvature="0" />
        <path
           id="path3350"
           d="m 213.248,106.739 h -0.25 c -0.047,0.3 -0.118,0.738 -0.219,0.886 -0.07,0.082 -0.727,0.082 -0.945,0.082 h -1.793 l 1.054,-1.027 c 1.555,-1.375 2.153,-1.914 2.153,-2.91 0,-1.137 -0.895,-1.934 -2.114,-1.934 -1.125,0 -1.859,0.918 -1.859,1.805 0,0.559 0.496,0.559 0.527,0.559 0.168,0 0.516,-0.122 0.516,-0.528 0,-0.261 -0.18,-0.519 -0.527,-0.519 -0.078,0 -0.098,0 -0.129,0.011 0.23,-0.648 0.765,-1.019 1.343,-1.019 0.907,0 1.336,0.808 1.336,1.625 0,0.797 -0.496,1.586 -1.046,2.203 l -1.911,2.133 c -0.109,0.109 -0.109,0.129 -0.109,0.367 h 3.695 z m 0.597,1.589"
           style="fill:#000000;fill-rule:evenodd;stroke:none"
           inkscape:connector-curvature="0" />
        <path
           id="path3352"
           d="m 240.416,106.758 h 1.125 c -0.328,1.473 -0.418,1.903 -0.418,2.57 0,0.149 0,0.418 0.078,0.758 0.101,0.438 0.211,0.496 0.359,0.496 0.199,0 0.41,-0.179 0.41,-0.379 0,-0.058 0,-0.078 -0.062,-0.218 -0.289,-0.719 -0.289,-1.364 -0.289,-1.645 0,-0.527 0.07,-1.066 0.179,-1.582 h 1.137 c 0.129,0 0.488,0 0.488,-0.34 0,-0.238 -0.207,-0.238 -0.398,-0.238 h -3.336 c -0.219,0 -0.598,0 -1.039,0.469 -0.348,0.386 -0.605,0.844 -0.605,0.894 0,0.012 0,0.102 0.117,0.102 0.082,0 0.101,-0.043 0.16,-0.121 0.488,-0.766 1.066,-0.766 1.265,-0.766 h 0.571 c -0.321,1.203 -0.86,2.41 -1.278,3.317 -0.078,0.148 -0.078,0.168 -0.078,0.238 0,0.191 0.161,0.269 0.289,0.269 0.297,0 0.379,-0.277 0.496,-0.648 0.141,-0.457 0.141,-0.477 0.27,-0.977 z m 3.476,3.961"
           style="fill:#000000;fill-rule:evenodd;stroke:none"
           inkscape:connector-curvature="0" />
        <path
           id="path3354"
           d="m 91.3605,106.18 c 0.141,0 0.328,0 0.328,-0.199 0,-0.199 -0.187,-0.199 -0.328,-0.199 h -5.43 c -0.14,0 -0.328,0 -0.328,0.199 0,0.199 0.188,0.199 0.328,0.199 z m 0.828,2.063"
           style="fill:#000000;fill-rule:evenodd;stroke:none"
           inkscape:connector-curvature="0" />
        <path
           id="path3356"
           d="m 94.4155,104.758 h 1.125 c -0.328,1.473 -0.418,1.903 -0.418,2.57 0,0.149 0,0.418 0.078,0.758 0.101,0.438 0.211,0.496 0.359,0.496 0.199,0 0.41,-0.179 0.41,-0.379 0,-0.058 0,-0.078 -0.062,-0.218 -0.289,-0.719 -0.289,-1.364 -0.289,-1.645 0,-0.527 0.07,-1.066 0.179,-1.582 h 1.137 c 0.129,0 0.488,0 0.488,-0.34 0,-0.238 -0.207,-0.238 -0.398,-0.238 h -3.336 c -0.219,0 -0.598,0 -1.039,0.469 -0.348,0.386 -0.605,0.844 -0.605,0.894 0,0.012 0,0.102 0.117,0.102 0.082,0 0.101,-0.043 0.16,-0.121 0.488,-0.766 1.066,-0.766 1.265,-0.766 h 0.571 c -0.321,1.203 -0.86,2.41 -1.278,3.317 -0.078,0.148 -0.078,0.168 -0.078,0.238 0,0.191 0.161,0.269 0.289,0.269 0.297,0 0.379,-0.277 0.496,-0.648 0.141,-0.457 0.141,-0.477 0.27,-0.977 z m 3.5,3.485"
           style="fill:#000000;fill-rule:evenodd;stroke:none"
           inkscape:connector-curvature="0" />
        <path
           id="path3358"
           d="m 102.15,101.379 c 0.047,-0.129 0.047,-0.168 0.047,-0.179 0,-0.11 -0.09,-0.2 -0.199,-0.2 -0.067,0 -0.137,0.032 -0.168,0.09 l -3.4575,9.496 c -0.051,0.129 -0.051,0.168 -0.051,0.18 0,0.109 0.09,0.199 0.199,0.199 0.129,0 0.16,-0.07 0.219,-0.242 z m 1.066,6.864"
           style="fill:#000000;fill-rule:evenodd;stroke:none"
           inkscape:connector-curvature="0" />
        <path
           id="path3360"
           d="m 108.248,106.739 h -0.25 c -0.047,0.3 -0.118,0.738 -0.219,0.886 -0.07,0.082 -0.727,0.082 -0.945,0.082 h -1.793 l 1.054,-1.027 c 1.555,-1.375 2.153,-1.914 2.153,-2.91 0,-1.137 -0.895,-1.934 -2.114,-1.934 -1.125,0 -1.859,0.918 -1.859,1.805 0,0.559 0.496,0.559 0.527,0.559 0.168,0 0.516,-0.122 0.516,-0.528 0,-0.261 -0.18,-0.519 -0.527,-0.519 -0.078,0 -0.098,0 -0.129,0.011 0.23,-0.648 0.765,-1.019 1.343,-1.019 0.907,0 1.336,0.808 1.336,1.625 0,0.797 -0.496,1.586 -1.046,2.203 l -1.911,2.133 c -0.109,0.109 -0.109,0.129 -0.109,0.367 h 3.695 z m 0.011,1.504"
           style="fill:#000000;fill-rule:evenodd;stroke:none"
           inkscape:connector-curvature="0" />
        <path
           id="path3362"
           d="m 63.3605,130.18 c 0.141,0 0.328,0 0.328,-0.199 0,-0.199 -0.187,-0.199 -0.328,-0.199 h -5.43 c -0.14,0 -0.328,0 -0.328,0.199 0,0.199 0.188,0.199 0.328,0.199 z m 0.805,2.305"
           style="fill:#000000;fill-rule:evenodd;stroke:none"
           inkscape:connector-curvature="0" />
        <path
           id="path3364"
           d="m 66.4155,128.758 h 1.125 c -0.328,1.473 -0.418,1.903 -0.418,2.57 0,0.149 0,0.418 0.078,0.758 0.101,0.438 0.211,0.496 0.359,0.496 0.199,0 0.41,-0.179 0.41,-0.379 0,-0.058 0,-0.078 -0.062,-0.218 -0.289,-0.719 -0.289,-1.364 -0.289,-1.645 0,-0.527 0.07,-1.066 0.179,-1.582 h 1.137 c 0.129,0 0.488,0 0.488,-0.34 0,-0.238 -0.207,-0.238 -0.398,-0.238 h -3.336 c -0.219,0 -0.598,0 -1.039,0.469 -0.348,0.386 -0.605,0.844 -0.605,0.894 0,0.012 0,0.102 0.117,0.102 0.082,0 0.101,-0.043 0.16,-0.121 0.488,-0.766 1.066,-0.766 1.265,-0.766 h 0.571 c -0.321,1.203 -0.86,2.41 -1.278,3.317 -0.078,0.148 -0.078,0.168 -0.078,0.238 0,0.191 0.161,0.269 0.289,0.269 0.297,0 0.379,-0.277 0.496,-0.648 0.141,-0.457 0.141,-0.477 0.27,-0.977 z m 3.476,3.727"
           style="fill:#000000;fill-rule:evenodd;stroke:none"
           inkscape:connector-curvature="0" />
        <path
           id="path3366"
           d="m 294.103,124.465 c 0.059,-0.262 0.289,-1.176 0.984,-1.176 0.051,0 0.29,0 0.5,0.129 -0.281,0.051 -0.48,0.297 -0.48,0.539 0,0.161 0.109,0.348 0.379,0.348 0.219,0 0.539,-0.18 0.539,-0.578 0,-0.52 -0.586,-0.656 -0.926,-0.656 -0.578,0 -0.926,0.527 -1.047,0.757 -0.25,-0.66 -0.785,-0.757 -1.074,-0.757 -1.039,0 -1.605,1.285 -1.605,1.531 0,0.101 0.101,0.101 0.121,0.101 0.078,0 0.109,-0.019 0.129,-0.109 0.34,-1.055 0.996,-1.305 1.336,-1.305 0.187,0 0.535,0.09 0.535,0.668 0,0.309 -0.168,0.977 -0.535,2.371 -0.161,0.618 -0.512,1.036 -0.95,1.036 -0.058,0 -0.289,0 -0.496,-0.129 0.246,-0.051 0.469,-0.262 0.469,-0.539 0,-0.27 -0.223,-0.348 -0.371,-0.348 -0.297,0 -0.547,0.258 -0.547,0.578 0,0.457 0.496,0.656 0.938,0.656 0.656,0 1.015,-0.695 1.043,-0.757 0.121,0.371 0.48,0.757 1.078,0.757 1.027,0 1.593,-1.285 1.593,-1.535 0,-0.097 -0.089,-0.097 -0.121,-0.097 -0.09,0 -0.109,0.039 -0.129,0.109 -0.328,1.066 -1.003,1.305 -1.324,1.305 -0.387,0 -0.547,-0.321 -0.547,-0.657 0,-0.218 0.059,-0.441 0.168,-0.879 z m 2.606,3.492"
           style="fill:#000000;fill-rule:evenodd;stroke:none"
           inkscape:connector-curvature="0" />
        <path
           id="path3394"
           d="m 10.4425,102.59 1.426,2.75 1.422,2.785 1.425,2.813 1.422,2.832 1.426,2.844 1.426,2.847 1.426,2.844 1.421,2.84 1.426,2.82 1.422,2.797 1.426,2.77 1.426,2.726 1.422,2.688 1.425,2.632 1.426,2.575 1.426,2.511 1.422,2.442 1.426,2.363 1.421,2.281 1.426,2.196 1.426,2.097 1.422,2 1.426,1.895 1.425,1.785 1.422,1.672 1.426,1.555 1.426,1.433 1.422,1.305 1.426,1.18 1.425,1.043 1.422,0.914 1.426,0.773 1.426,0.637 1.422,0.496 1.425,0.355 1.426,0.211 1.422,0.071 1.426,-0.075 1.426,-0.218 1.422,-0.36 1.425,-0.5 1.422,-0.64 1.426,-0.782 1.426,-0.918 1.426,-1.047 1.421,-1.183 1.426,-1.313 1.422,-1.437 1.426,-1.559 1.426,-1.675 1.421,-1.79 1.426,-1.898 1.426,-2.004 1.426,-2.101 1.422,-2.196 1.426,-2.285 1.421,-2.367 1.426,-2.442 1.426,-2.515 1.422,-2.578 1.426,-2.633 1.425,-2.688 1.4225,-2.734 1.426,-2.766 1.426,-2.796 1.422,-2.825 1.425,-2.836 1.426,-2.847 1.422,-2.848 1.426,-2.844 1.426,-2.832 1.422,-2.808 1.425,-2.785 1.426,-2.75 1.422,-2.708 1.426,-2.66 1.426,-2.605 1.421,-2.547 1.426,-2.48 1.422,-2.403 1.426,-2.328 1.426,-2.238 1.422,-2.149 1.425,-2.05 1.426,-1.95 1.426,-1.843 1.422,-1.731 1.426,-1.613 1.421,-1.496 1.426,-1.375 1.426,-1.242 1.422,-1.118 1.426,-0.9799 1.425,-0.8441 1.422,-0.711 1.426,-0.566 1.426,-0.43 1.422,-0.2849 1.426,-0.1451 h 1.425 l 1.422,0.1451 1.426,0.2849 1.426,0.43 1.422,0.566 1.425,0.711 1.426,0.8441 1.422,0.9799 1.426,1.118 1.426,1.246 1.421,1.371 1.426,1.496 1.422,1.613 1.426,1.731 1.426,1.843 1.425,1.95 1.422,2.05 1.426,2.149 1.426,2.238 1.422,2.328 1.426,2.403 1.421,2.48 1.426,2.547 1.426,2.605 1.422,2.66 1.426,2.711 1.425,2.747 1.422,2.785 1.426,2.812 1.426,2.828 1.422,2.844 1.426,2.848 1.425,2.847 1.422,2.836 1.426,2.825 1.426,2.796 1.422,2.77 1.425,2.73 1.426,2.688 1.422,2.633 1.426,2.578 1.426,2.515 1.422,2.446 1.425,2.363 1.426,2.285 1.422,2.196 1.426,2.101 1.425,2.004 1.422,1.898 1.426,1.79 1.426,1.679 1.422,1.559 1.426,1.433 1.421,1.313 1.426,1.183 1.426,1.047 1.426,0.918 1.422,0.782 1.425,0.64 1.422,0.5 1.426,0.36 1.426,0.218 1.422,0.075 1.426,-0.071 1.425,-0.211 1.422,-0.355 1.426,-0.496 1.426,-0.637 1.422,-0.773 1.425,-0.914 1.426,-1.043 1.422,-1.18 1.426,-1.309 1.426,-1.429 1.422,-1.555 1.425,-1.672 1.426,-1.785 1.422,-1.895 1.426,-2 1.426,-2.097 1.421,-2.196 1.426,-2.281 1.422,-2.363 1.426,-2.442 1.426,-2.511 1.425,-2.575 1.422,-2.632 1.426,-2.688 1.426,-2.73 1.422,-2.766 1.425,-2.797 1.422,-2.82 1.426,-2.84 1.426,-2.844 1.426,-2.847 1.422,-2.844 1.425,-2.832 1.422,-2.813 1.426,-2.785 1.426,-2.75"
           style="fill:none;stroke:#ff0000;stroke-width:3.16438522;stroke-miterlimit:4;stroke-dasharray:none"
           inkscape:connector-curvature="0" />
        <path
           id="path3402"
           d="m 149.185,61.981 h 0.5"
           style="fill:none;stroke:#000000;stroke-width:0.79701102;stroke-linecap:square"
           inkscape:connector-curvature="0" />
        <path
           id="path3404"
           d="m 155.162,61.981 h -0.496"
           style="fill:none;stroke:#000000;stroke-width:0.79701102;stroke-linecap:square"
           inkscape:connector-curvature="0" />
        <path
           id="path3406"
           d="m 149.185,61.981 h 5.977"
           style="fill:none;stroke:#000000;stroke-width:0.79701102"
           inkscape:connector-curvature="0" />
        <circle
           r="14.038274"
           cy="19.378498"
           cx="39.31559"
           id="path17233-6"
           style="fill:#008080;fill-opacity:0.31282055;stroke:#1a1a1a;stroke-width:5.71698332;stroke-miterlimit:4;stroke-dasharray:none;stroke-dashoffset:0" />
      </g>
    </g>
  </g>
</svg>
