<?xml version="1.0" encoding="UTF-8" standalone="no"?>
<!-- Created with Inkscape (http://www.inkscape.org/) -->

<svg
   xmlns:dc="http://purl.org/dc/elements/1.1/"
   xmlns:cc="http://creativecommons.org/ns#"
   xmlns:rdf="http://www.w3.org/1999/02/22-rdf-syntax-ns#"
   xmlns:svg="http://www.w3.org/2000/svg"
   xmlns="http://www.w3.org/2000/svg"
   xmlns:sodipodi="http://sodipodi.sourceforge.net/DTD/sodipodi-0.dtd"
   xmlns:inkscape="http://www.inkscape.org/namespaces/inkscape"
   width="18.345377mm"
   height="16.305882mm"
   viewBox="0 0 18.345377 16.305882"
   version="1.1"
   id="svg8"
   inkscape:version="0.92.3 (2405546, 2018-03-11)"
   sodipodi:docname="example.svg">
  <defs
     id="defs2" />
  <sodipodi:namedview
     id="base"
     pagecolor="#ffffff"
     bordercolor="#666666"
     borderopacity="1.0"
     inkscape:pageopacity="0.0"
     inkscape:pageshadow="2"
     inkscape:zoom="7.919596"
     inkscape:cx="-34.082957"
     inkscape:cy="23.994153"
     inkscape:document-units="mm"
     inkscape:current-layer="layer1"
     showgrid="false"
     fit-margin-top="2"
     fit-margin-left="2"
     fit-margin-right="2"
     fit-margin-bottom="2"
     inkscape:window-width="3200"
     inkscape:window-height="1645"
     inkscape:window-x="0"
     inkscape:window-y="41"
     inkscape:window-maximized="1" />
  <metadata
     id="metadata5">
    <rdf:RDF>
      <cc:Work
         rdf:about="">
        <dc:format>image/svg+xml</dc:format>
        <dc:type
           rdf:resource="http://purl.org/dc/dcmitype/StillImage" />
        <dc:title />
      </cc:Work>
    </rdf:RDF>
  </metadata>
  <g
     inkscape:label="Layer 1"
     inkscape:groupmode="layer"
     id="layer1"
     transform="translate(-53.449611,-76.18607)">
    <path
       style="fill:none;stroke:#000000;stroke-width:0.45101142;stroke-linecap:butt;stroke-linejoin:miter;stroke-miterlimit:4;stroke-dasharray:none;stroke-opacity:1"
       d="m 60.873965,88.022672 v 1.771305 c 6.41e-4,0.237295 0.191692,0.784855 0.679223,0.799086 l 1.691398,-0.01332 c 0.704774,-0.0019 0.901636,-0.349787 0.90039,-0.918472 -0.0012,-0.590038 -0.01191,-0.986126 -0.0081,-1.611966 0.135237,-2.945653 2.588521,-2.602677 2.610346,-6.166276 -0.0637,-1.996644 -1.63465,-3.83561 -4.195198,-3.83561 -0.475727,0.0035 -4.115291,0.414713 -4.115291,4.101972 0,3.192223 2.295564,2.727703 2.43721,5.873279 z"
       id="path8403"
       inkscape:connector-curvature="0"
       sodipodi:nodetypes="ccccscccccc" />
    <path
       style="fill:none;stroke:#000000;stroke-width:0.29832524px;stroke-linecap:butt;stroke-linejoin:miter;stroke-opacity:1"
       d="m 60.873965,88.022672 h 3.278599"
       id="path8405"
       inkscape:connector-curvature="0" />
    <path
       style="fill:none;stroke:#000000;stroke-width:0.29832524px;stroke-linecap:butt;stroke-linejoin:miter;stroke-opacity:1"
       d="m 61.713481,79.144422 c -1.128469,0.26976 -1.93795,1.210363 -2.015305,1.808124 l 1.073574,0.0047 c 0.0332,-0.843203 0.54305,-1.462835 0.941731,-1.812832 z"
       id="path8407"
       inkscape:connector-curvature="0"
       sodipodi:nodetypes="ccccc" />
    <path
       style="fill:#ffeeaa;fill-opacity:1;stroke:#1a1a1a;stroke-width:0.04026888;stroke-miterlimit:4;stroke-dasharray:none"
       d="m 61.083349,87.661877 c -0.05277,-0.545736 -0.199138,-1.060177 -0.431023,-1.514902 -0.182093,-0.357083 -0.387231,-0.641132 -0.863259,-1.19533 -0.693397,-0.807262 -0.91906,-1.232453 -1.053186,-1.984396 -0.0649,-0.363869 -0.06739,-1.230469 -0.0045,-1.571535 0.07107,-0.385498 0.171508,-0.698497 0.325883,-1.015598 0.484007,-0.994197 1.444027,-1.679146 2.800125,-1.997815 0.281645,-0.06618 0.367884,-0.07449 0.782656,-0.07538 0.542048,-0.0012 0.826314,0.04207 1.306157,0.198651 1.293269,0.422019 2.198068,1.427739 2.493266,2.77136 0.07275,0.331147 0.06585,1.142989 -0.01344,1.581068 -0.112473,0.621394 -0.36698,1.216477 -0.723073,1.690674 -0.09964,0.132684 -0.32359,0.406485 -0.497672,0.608447 -0.448324,0.520126 -0.515142,0.604589 -0.685794,0.866902 -0.324896,0.499404 -0.527683,1.068484 -0.588384,1.651173 l -0.01873,0.179795 H 62.5072 61.102027 Z M 60.935321,80.98173 c 0,-0.494357 0.256788,-1.058342 0.696017,-1.528664 0.179143,-0.191824 0.187464,-0.206278 0.158466,-0.275259 -0.01683,-0.04004 -0.05203,-0.100849 -0.07821,-0.135126 l -0.04761,-0.06232 -0.211172,0.07174 c -0.988591,0.335822 -1.824176,1.169832 -1.914391,1.910783 l -0.01865,0.153158 h 0.707776 0.707775 z"
       id="path1604"
       inkscape:connector-curvature="0" />
    <path
       style="fill:#b3b3b3;fill-opacity:1;stroke:#1a1a1a;stroke-width:0.04026888;stroke-miterlimit:4;stroke-dasharray:none"
       d="m 61.441422,90.331099 c -0.106461,-0.04602 -0.188884,-0.135618 -0.256323,-0.278625 -0.06197,-0.131419 -0.06281,-0.144724 -0.06306,-1.005516 l -2.6e-4,-0.872335 h 1.385081 1.385082 l 0.0067,0.632609 c 0.0091,0.865573 0.0035,1.060557 -0.03443,1.196026 -0.03855,0.137686 -0.165232,0.260128 -0.311112,0.3007 -0.144126,0.04008 -2.02575,0.06427 -2.111632,0.02714 z"
       id="path1606"
       inkscape:connector-curvature="0" />
    <rect
       style="fill:#b3b3b3;fill-opacity:1;stroke:#1a1a1a;stroke-width:0.32109556;stroke-miterlimit:4;stroke-dasharray:none"
       id="rect1608"
       width="1.2034895"
       height="0.0404514"
       x="61.170593"
       y="88.68042"
       ry="0.0202257" />
    <rect
       style="fill:#b3b3b3;fill-opacity:1;stroke:#1a1a1a;stroke-width:0.32109556;stroke-miterlimit:4;stroke-dasharray:none"
       id="rect1608-3"
       width="1.2034895"
       height="0.0404514"
       x="61.170593"
       y="89.277237"
       ry="0.0202257" />
    <rect
       style="fill:#b3b3b3;fill-opacity:1;stroke:#1a1a1a;stroke-width:0.32109556;stroke-miterlimit:4;stroke-dasharray:none"
       id="rect1608-5"
       width="1.2034895"
       height="0.0404514"
       x="61.170593"
       y="89.874054"
       ry="0.0202257" />
  </g>
</svg>
