<?xml version="1.0" encoding="UTF-8" standalone="no"?>
<!-- Created with Inkscape (http://www.inkscape.org/) -->

<svg
   xmlns:dc="http://purl.org/dc/elements/1.1/"
   xmlns:cc="http://creativecommons.org/ns#"
   xmlns:rdf="http://www.w3.org/1999/02/22-rdf-syntax-ns#"
   xmlns:svg="http://www.w3.org/2000/svg"
   xmlns="http://www.w3.org/2000/svg"
   xmlns:sodipodi="http://sodipodi.sourceforge.net/DTD/sodipodi-0.dtd"
   xmlns:inkscape="http://www.inkscape.org/namespaces/inkscape"
   width="18.345377mm"
   height="16.305882mm"
   viewBox="0 0 18.345377 16.305882"
   version="1.1"
   id="svg8"
   inkscape:version="0.92.3 (2405546, 2018-03-11)"
   sodipodi:docname="dog.svg">
  <defs
     id="defs2">
    <inkscape:perspective
       sodipodi:type="inkscape:persp3d"
       inkscape:vp_x="0 : 8.152941 : 1"
       inkscape:vp_y="0 : 1000 : 0"
       inkscape:vp_z="18.345377 : 8.152941 : 1"
       inkscape:persp3d-origin="9.1726885 : 5.435294 : 1"
       id="perspective893" />
    <marker
       inkscape:stockid="Arrow2Send"
       orient="auto"
       refY="0.0"
       refX="0.0"
       id="Arrow2Send"
       style="overflow:visible;"
       inkscape:isstock="true">
      <path
         id="path10143"
         style="fill-rule:evenodd;stroke-width:0.625;stroke-linejoin:round;stroke:#000000;stroke-opacity:1;fill:#000000;fill-opacity:1"
         d="M 8.7185878,4.0337352 L -2.2072895,0.016013256 L 8.7185884,-4.0017078 C 6.9730900,-1.6296469 6.9831476,1.6157441 8.7185878,4.0337352 z "
         transform="scale(0.3) rotate(180) translate(-2.3,0)" />
    </marker>
    <marker
       inkscape:stockid="Arrow1Send"
       orient="auto"
       refY="0.0"
       refX="0.0"
       id="marker17285"
       style="overflow:visible;"
       inkscape:isstock="true">
      <path
         id="path17283"
         d="M 0.0,0.0 L 5.0,-5.0 L -12.5,0.0 L 5.0,5.0 L 0.0,0.0 z "
         style="fill-rule:evenodd;stroke:#000000;stroke-width:1pt;stroke-opacity:1;fill:#000000;fill-opacity:1"
         transform="scale(0.2) rotate(180) translate(6,0)" />
    </marker>
    <marker
       inkscape:stockid="Arrow1Send"
       orient="auto"
       refY="0.0"
       refX="0.0"
       id="Arrow1Send"
       style="overflow:visible;"
       inkscape:isstock="true">
      <path
         id="path10125"
         d="M 0.0,0.0 L 5.0,-5.0 L -12.5,0.0 L 5.0,5.0 L 0.0,0.0 z "
         style="fill-rule:evenodd;stroke:#000000;stroke-width:1pt;stroke-opacity:1;fill:#000000;fill-opacity:1"
         transform="scale(0.2) rotate(180) translate(6,0)" />
    </marker>
    <marker
       inkscape:stockid="Arrow2Sstart"
       orient="auto"
       refY="0.0"
       refX="0.0"
       id="Arrow2Sstart"
       style="overflow:visible"
       inkscape:isstock="true">
      <path
         id="path10140"
         style="fill-rule:evenodd;stroke-width:0.625;stroke-linejoin:round;stroke:#000000;stroke-opacity:1;fill:#000000;fill-opacity:1"
         d="M 8.7185878,4.0337352 L -2.2072895,0.016013256 L 8.7185884,-4.0017078 C 6.9730900,-1.6296469 6.9831476,1.6157441 8.7185878,4.0337352 z "
         transform="scale(0.3) translate(-2.3,0)" />
    </marker>
  </defs>
  <sodipodi:namedview
     id="base"
     pagecolor="#ffffff"
     bordercolor="#666666"
     borderopacity="1.0"
     inkscape:pageopacity="0.0"
     inkscape:pageshadow="2"
     inkscape:zoom="5.656854"
     inkscape:cx="54.563342"
     inkscape:cy="29.116823"
     inkscape:document-units="mm"
     inkscape:current-layer="g1064"
     showgrid="false"
     fit-margin-top="2"
     fit-margin-left="2"
     fit-margin-right="2"
     fit-margin-bottom="2"
     inkscape:window-width="1920"
     inkscape:window-height="992"
     inkscape:window-x="0"
     inkscape:window-y="24"
     inkscape:window-maximized="1" />
  <metadata
     id="metadata5">
    <rdf:RDF>
      <cc:Work
         rdf:about="">
        <dc:format>image/svg+xml</dc:format>
        <dc:type
           rdf:resource="http://purl.org/dc/dcmitype/StillImage" />
        <dc:title></dc:title>
      </cc:Work>
    </rdf:RDF>
  </metadata>
  <g
     inkscape:label="Layer 1"
     inkscape:groupmode="layer"
     id="layer1"
     transform="translate(-53.449611,-76.18607)">
    <g
       id="g17167"
       transform="translate(-0.56223958,0.1984375)">
      <g
         id="g1064"
         transform="matrix(1.2646968,0,0,1.2646968,-16.50459,-22.814155)">
        <path
           id="path3300"
           d="M 56.040123,84.538294 H 69.618479"
           style="fill:none;stroke:#000000;stroke-width:0.07907034;stroke-miterlimit:4;stroke-dasharray:none"
           inkscape:connector-curvature="0"
           sodipodi:nodetypes="cc" />
        <path
           id="path3304"
           d="m 63.32556,79.272044 -0.242263,-0.677274 -0.241632,0.677274 0.241632,-0.270448"
           style="fill:#000000;fill-rule:evenodd;stroke:none;stroke-width:0.1565944"
           inkscape:connector-curvature="0" />
        <path
           id="path3306"
           d="M 63.083297,90.164998 V 79.001596"
           style="fill:none;stroke:#000000;stroke-width:0.07907034;stroke-miterlimit:4;stroke-dasharray:none"
           inkscape:connector-curvature="0" />
        <path
           id="path3320"
           d="M 63.252564,80.6199 H 62.914081"
           style="fill:none;stroke:#000000;stroke-width:0.03983076"
           inkscape:connector-curvature="0" />
        <path
           id="path3342"
           d="m 62.868602,84.980605 c 0,-0.03978 -0.0025,-0.07961 -0.01989,-0.116541 -0.02284,-0.04783 -0.06367,-0.05582 -0.08456,-0.05582 -0.02984,0 -0.06637,0.01309 -0.08666,0.05937 -0.016,0.03433 -0.01854,0.07321 -0.01854,0.112994 0,0.03733 0.0022,0.08221 0.02244,0.12009 0.02149,0.04023 0.05777,0.05017 0.08216,0.05017 0.02698,0 0.06482,-0.01034 0.0867,-0.05782 0.01579,-0.03433 0.01834,-0.07317 0.01834,-0.112445 z m -0.105048,0.159321 c -0.01929,0 -0.04877,-0.0125 -0.05777,-0.06032 -0.0054,-0.02988 -0.0054,-0.07557 -0.0054,-0.105048 0,-0.03178 0,-0.06462 0.0041,-0.09155 0.0093,-0.05933 0.04663,-0.06362 0.05912,-0.06362 0.01644,0 0.04943,0.0088 0.05877,0.05817 0.0051,0.02794 0.0051,0.06576 0.0051,0.097 0,0.03748 0,0.07126 -0.0057,0.103098 -0.0074,0.04722 -0.03574,0.06226 -0.05822,0.06226 z m 0.103499,0.02344"
           style="fill:#000000;fill-rule:evenodd;stroke:none;stroke-width:0.04997516"
           inkscape:connector-curvature="0" />
        <path
           id="path3344"
           d="m 62.560157,80.375871 c 0,-0.01189 0,-0.0131 -0.01154,-0.0131 -0.03084,0.03204 -0.07456,0.03204 -0.09055,0.03204 v 0.01538 c 0.0099,0 0.03923,0 0.06517,-0.01305 v 0.258072 c 0,0.01774 -0.0016,0.02379 -0.04623,0.02379 h -0.01604 v 0.01544 c 0.01759,-0.0016 0.06072,-0.0016 0.08066,-0.0016 0.01989,0 0.06322,0 0.08081,0.0016 v -0.01544 h -0.01604 c -0.04488,0 -0.04623,-0.0054 -0.04623,-0.02379 z m 0.123339,0.318592"
           style="fill:#000000;fill-rule:evenodd;stroke:none;stroke-width:0.04997516"
           inkscape:connector-curvature="0" />
        <path
           id="path3402"
           d="m 62.933972,80.6199 h 0.02499"
           style="fill:none;stroke:#000000;stroke-width:0.03983076;stroke-linecap:square"
           inkscape:connector-curvature="0" />
        <path
           id="path3404"
           d="m 63.232673,80.6199 h -0.02479"
           style="fill:none;stroke:#000000;stroke-width:0.03983076;stroke-linecap:square"
           inkscape:connector-curvature="0" />
        <path
           id="path3406"
           d="m 62.933972,80.6199 h 0.298701"
           style="fill:none;stroke:#000000;stroke-width:0.03983076"
           inkscape:connector-curvature="0" />
        <path
           id="path3304-1"
           d="m 69.348031,84.780557 0.677274,-0.242263 -0.677274,-0.241632 0.270448,0.241632"
           style="fill:#000000;fill-rule:evenodd;stroke:none;stroke-width:0.1565944"
           inkscape:connector-curvature="0" />
        <path
           id="path2128"
           d="m 61.181213,81.723859 c 0.135635,0.09515 0.214029,0.261427 0.214029,0.434252 0,0.422956 -0.290231,0.608905 -0.551659,0.608905 -0.309195,0 -0.551303,-0.225694 -0.551303,-0.589579 0,-0.384666 0.244659,-0.611089 0.59177,-0.611089 0.06418,0 0.18778,0 0.220596,0 h 0.126156 c 0.07839,0 0.216217,0.003 0.25924,-0.0027 l -0.0073,0.1597 c -0.05469,0 -0.133083,0 -0.301897,-0.0073 z m 0.0069,0.435349 c 0,-0.192153 -0.09953,-0.434987 -0.33763,-0.434987 -0.237369,0 -0.344566,0.228616 -0.344566,0.44483 0,0.251586 0.144752,0.442275 0.344566,0.442275 0.187774,-5.55e-4 0.33763,-0.191056 0.33763,-0.452118 z"
           inkscape:connector-curvature="0"
           style="fill:#1a1a1a;fill-opacity:1;stroke-width:0.36461416" />
        <path
           style="fill:none;stroke:#d00303;stroke-width:0.237211;stroke-linecap:butt;stroke-linejoin:miter;stroke-miterlimit:4;stroke-dasharray:none;stroke-opacity:1"
           d="m 56.574014,84.49782 c 1.890219,0 1.768438,1.541964 2.834948,1.54563 0.745112,0.0026 1.313508,-1.018557 1.606087,-1.52532 0.73167,-1.267289 1.129098,-3.783819 2.071886,-3.783819 0.99252,0 1.37961,2.415281 2.007272,3.753803 0.414523,0.883992 0.81792,1.529893 1.555726,1.56317 0.889015,0.0401 1.330166,-1.553396 2.488427,-1.553396"
           id="path859"
           inkscape:connector-curvature="0"
           sodipodi:nodetypes="csscssc" />
      </g>
    </g>
  </g>
</svg>
